<mxfile host="app.diagrams.net" agent="Mozilla/5.0 (Windows NT 10.0; Win64; x64) AppleWebKit/537.36 (KHTML, like Gecko) Chrome/127.0.0.0 Safari/537.36 Edg/127.0.0.0" version="24.7.6">
  <diagram name="Page-1" id="oikR3GBzNa5eyf18d6Ek">
    <mxGraphModel dx="1442" dy="664" grid="1" gridSize="10" guides="1" tooltips="1" connect="1" arrows="1" fold="1" page="0" pageScale="1" pageWidth="850" pageHeight="1100" math="0" shadow="0">
      <root>
        <mxCell id="0" />
        <mxCell id="1" parent="0" />
        <mxCell id="fjk3bIadfPxCiMlMOLe3-2" value="" style="ellipse;whiteSpace=wrap;html=1;aspect=fixed;fillColor=#dae8fc;gradientColor=#7ea6e0;strokeColor=#6c8ebf;" vertex="1" parent="1">
          <mxGeometry x="-140" y="60" width="40" height="40" as="geometry" />
        </mxCell>
        <mxCell id="fjk3bIadfPxCiMlMOLe3-3" value="" style="ellipse;whiteSpace=wrap;html=1;aspect=fixed;" vertex="1" parent="1">
          <mxGeometry x="-60" y="60" width="40" height="40" as="geometry" />
        </mxCell>
        <mxCell id="fjk3bIadfPxCiMlMOLe3-4" value="" style="ellipse;whiteSpace=wrap;html=1;aspect=fixed;" vertex="1" parent="1">
          <mxGeometry x="20" y="60" width="40" height="40" as="geometry" />
        </mxCell>
        <mxCell id="fjk3bIadfPxCiMlMOLe3-5" value="" style="ellipse;whiteSpace=wrap;html=1;aspect=fixed;" vertex="1" parent="1">
          <mxGeometry x="100" y="60" width="40" height="40" as="geometry" />
        </mxCell>
        <mxCell id="fjk3bIadfPxCiMlMOLe3-6" value="" style="ellipse;whiteSpace=wrap;html=1;aspect=fixed;" vertex="1" parent="1">
          <mxGeometry x="182" y="60" width="40" height="40" as="geometry" />
        </mxCell>
        <mxCell id="fjk3bIadfPxCiMlMOLe3-7" value="" style="ellipse;whiteSpace=wrap;html=1;aspect=fixed;" vertex="1" parent="1">
          <mxGeometry x="262" y="60" width="40" height="40" as="geometry" />
        </mxCell>
        <mxCell id="fjk3bIadfPxCiMlMOLe3-8" value="" style="ellipse;whiteSpace=wrap;html=1;aspect=fixed;" vertex="1" parent="1">
          <mxGeometry x="342" y="60" width="40" height="40" as="geometry" />
        </mxCell>
        <mxCell id="fjk3bIadfPxCiMlMOLe3-9" value="" style="ellipse;whiteSpace=wrap;html=1;aspect=fixed;" vertex="1" parent="1">
          <mxGeometry x="422" y="60" width="40" height="40" as="geometry" />
        </mxCell>
        <mxCell id="fjk3bIadfPxCiMlMOLe3-10" value="" style="ellipse;whiteSpace=wrap;html=1;aspect=fixed;" vertex="1" parent="1">
          <mxGeometry x="-140" y="110" width="40" height="40" as="geometry" />
        </mxCell>
        <mxCell id="fjk3bIadfPxCiMlMOLe3-11" value="" style="ellipse;whiteSpace=wrap;html=1;aspect=fixed;" vertex="1" parent="1">
          <mxGeometry x="-60" y="110" width="40" height="40" as="geometry" />
        </mxCell>
        <mxCell id="fjk3bIadfPxCiMlMOLe3-13" value="" style="ellipse;whiteSpace=wrap;html=1;aspect=fixed;" vertex="1" parent="1">
          <mxGeometry x="100" y="110" width="40" height="40" as="geometry" />
        </mxCell>
        <mxCell id="fjk3bIadfPxCiMlMOLe3-14" value="" style="ellipse;whiteSpace=wrap;html=1;aspect=fixed;" vertex="1" parent="1">
          <mxGeometry x="182" y="110" width="40" height="40" as="geometry" />
        </mxCell>
        <mxCell id="fjk3bIadfPxCiMlMOLe3-15" value="" style="ellipse;whiteSpace=wrap;html=1;aspect=fixed;" vertex="1" parent="1">
          <mxGeometry x="262" y="110" width="40" height="40" as="geometry" />
        </mxCell>
        <mxCell id="fjk3bIadfPxCiMlMOLe3-16" value="" style="ellipse;whiteSpace=wrap;html=1;aspect=fixed;" vertex="1" parent="1">
          <mxGeometry x="342" y="110" width="40" height="40" as="geometry" />
        </mxCell>
        <mxCell id="fjk3bIadfPxCiMlMOLe3-17" value="" style="ellipse;whiteSpace=wrap;html=1;aspect=fixed;" vertex="1" parent="1">
          <mxGeometry x="422" y="110" width="40" height="40" as="geometry" />
        </mxCell>
        <mxCell id="fjk3bIadfPxCiMlMOLe3-18" value="" style="ellipse;whiteSpace=wrap;html=1;aspect=fixed;" vertex="1" parent="1">
          <mxGeometry x="-141" y="162" width="40" height="40" as="geometry" />
        </mxCell>
        <mxCell id="fjk3bIadfPxCiMlMOLe3-19" value="" style="ellipse;whiteSpace=wrap;html=1;aspect=fixed;" vertex="1" parent="1">
          <mxGeometry x="-61" y="162" width="40" height="40" as="geometry" />
        </mxCell>
        <mxCell id="fjk3bIadfPxCiMlMOLe3-20" value="" style="ellipse;whiteSpace=wrap;html=1;aspect=fixed;" vertex="1" parent="1">
          <mxGeometry x="19" y="162" width="40" height="40" as="geometry" />
        </mxCell>
        <mxCell id="fjk3bIadfPxCiMlMOLe3-21" value="" style="ellipse;whiteSpace=wrap;html=1;aspect=fixed;" vertex="1" parent="1">
          <mxGeometry x="99" y="162" width="40" height="40" as="geometry" />
        </mxCell>
        <mxCell id="fjk3bIadfPxCiMlMOLe3-22" value="" style="ellipse;whiteSpace=wrap;html=1;aspect=fixed;" vertex="1" parent="1">
          <mxGeometry x="181" y="162" width="40" height="40" as="geometry" />
        </mxCell>
        <mxCell id="fjk3bIadfPxCiMlMOLe3-23" value="" style="ellipse;whiteSpace=wrap;html=1;aspect=fixed;" vertex="1" parent="1">
          <mxGeometry x="261" y="162" width="40" height="40" as="geometry" />
        </mxCell>
        <mxCell id="fjk3bIadfPxCiMlMOLe3-24" value="" style="ellipse;whiteSpace=wrap;html=1;aspect=fixed;" vertex="1" parent="1">
          <mxGeometry x="341" y="162" width="40" height="40" as="geometry" />
        </mxCell>
        <mxCell id="fjk3bIadfPxCiMlMOLe3-25" value="" style="ellipse;whiteSpace=wrap;html=1;aspect=fixed;" vertex="1" parent="1">
          <mxGeometry x="421" y="162" width="40" height="40" as="geometry" />
        </mxCell>
        <mxCell id="fjk3bIadfPxCiMlMOLe3-26" value="" style="ellipse;whiteSpace=wrap;html=1;aspect=fixed;" vertex="1" parent="1">
          <mxGeometry x="-141" y="211" width="40" height="40" as="geometry" />
        </mxCell>
        <mxCell id="fjk3bIadfPxCiMlMOLe3-27" value="" style="ellipse;whiteSpace=wrap;html=1;aspect=fixed;" vertex="1" parent="1">
          <mxGeometry x="-61" y="211" width="40" height="40" as="geometry" />
        </mxCell>
        <mxCell id="fjk3bIadfPxCiMlMOLe3-28" value="" style="ellipse;whiteSpace=wrap;html=1;aspect=fixed;" vertex="1" parent="1">
          <mxGeometry x="19" y="211" width="40" height="40" as="geometry" />
        </mxCell>
        <mxCell id="fjk3bIadfPxCiMlMOLe3-29" value="" style="ellipse;whiteSpace=wrap;html=1;aspect=fixed;" vertex="1" parent="1">
          <mxGeometry x="99" y="211" width="40" height="40" as="geometry" />
        </mxCell>
        <mxCell id="fjk3bIadfPxCiMlMOLe3-30" value="" style="ellipse;whiteSpace=wrap;html=1;aspect=fixed;" vertex="1" parent="1">
          <mxGeometry x="181" y="211" width="40" height="40" as="geometry" />
        </mxCell>
        <mxCell id="fjk3bIadfPxCiMlMOLe3-31" value="" style="ellipse;whiteSpace=wrap;html=1;aspect=fixed;" vertex="1" parent="1">
          <mxGeometry x="261" y="211" width="40" height="40" as="geometry" />
        </mxCell>
        <mxCell id="fjk3bIadfPxCiMlMOLe3-32" value="" style="ellipse;whiteSpace=wrap;html=1;aspect=fixed;" vertex="1" parent="1">
          <mxGeometry x="341" y="211" width="40" height="40" as="geometry" />
        </mxCell>
        <mxCell id="fjk3bIadfPxCiMlMOLe3-33" value="" style="ellipse;whiteSpace=wrap;html=1;aspect=fixed;" vertex="1" parent="1">
          <mxGeometry x="421" y="211" width="40" height="40" as="geometry" />
        </mxCell>
        <mxCell id="fjk3bIadfPxCiMlMOLe3-34" value="" style="ellipse;whiteSpace=wrap;html=1;aspect=fixed;" vertex="1" parent="1">
          <mxGeometry x="-141" y="259" width="40" height="40" as="geometry" />
        </mxCell>
        <mxCell id="fjk3bIadfPxCiMlMOLe3-35" value="" style="ellipse;whiteSpace=wrap;html=1;aspect=fixed;" vertex="1" parent="1">
          <mxGeometry x="-61" y="259" width="40" height="40" as="geometry" />
        </mxCell>
        <mxCell id="fjk3bIadfPxCiMlMOLe3-36" value="" style="ellipse;whiteSpace=wrap;html=1;aspect=fixed;" vertex="1" parent="1">
          <mxGeometry x="19" y="259" width="40" height="40" as="geometry" />
        </mxCell>
        <mxCell id="fjk3bIadfPxCiMlMOLe3-37" value="" style="ellipse;whiteSpace=wrap;html=1;aspect=fixed;" vertex="1" parent="1">
          <mxGeometry x="99" y="259" width="40" height="40" as="geometry" />
        </mxCell>
        <mxCell id="fjk3bIadfPxCiMlMOLe3-38" value="" style="ellipse;whiteSpace=wrap;html=1;aspect=fixed;" vertex="1" parent="1">
          <mxGeometry x="181" y="259" width="40" height="40" as="geometry" />
        </mxCell>
        <mxCell id="fjk3bIadfPxCiMlMOLe3-39" value="" style="ellipse;whiteSpace=wrap;html=1;aspect=fixed;" vertex="1" parent="1">
          <mxGeometry x="261" y="259" width="40" height="40" as="geometry" />
        </mxCell>
        <mxCell id="fjk3bIadfPxCiMlMOLe3-40" value="" style="ellipse;whiteSpace=wrap;html=1;aspect=fixed;" vertex="1" parent="1">
          <mxGeometry x="341" y="259" width="40" height="40" as="geometry" />
        </mxCell>
        <mxCell id="fjk3bIadfPxCiMlMOLe3-41" value="" style="ellipse;whiteSpace=wrap;html=1;aspect=fixed;" vertex="1" parent="1">
          <mxGeometry x="421" y="259" width="40" height="40" as="geometry" />
        </mxCell>
        <mxCell id="fjk3bIadfPxCiMlMOLe3-50" value="A" style="text;strokeColor=none;fillColor=none;html=1;align=center;verticalAlign=middle;whiteSpace=wrap;rounded=0;fontSize=16;" vertex="1" parent="1">
          <mxGeometry x="-220" y="65" width="60" height="30" as="geometry" />
        </mxCell>
        <mxCell id="fjk3bIadfPxCiMlMOLe3-51" value="B" style="text;strokeColor=none;fillColor=none;html=1;align=center;verticalAlign=middle;whiteSpace=wrap;rounded=0;fontSize=16;" vertex="1" parent="1">
          <mxGeometry x="-220" y="115" width="60" height="30" as="geometry" />
        </mxCell>
        <mxCell id="fjk3bIadfPxCiMlMOLe3-52" value="C" style="text;strokeColor=none;fillColor=none;html=1;align=center;verticalAlign=middle;whiteSpace=wrap;rounded=0;fontSize=16;" vertex="1" parent="1">
          <mxGeometry x="-220" y="167" width="60" height="30" as="geometry" />
        </mxCell>
        <mxCell id="fjk3bIadfPxCiMlMOLe3-53" value="D" style="text;strokeColor=none;fillColor=none;html=1;align=center;verticalAlign=middle;whiteSpace=wrap;rounded=0;fontSize=16;" vertex="1" parent="1">
          <mxGeometry x="-220" y="216" width="60" height="30" as="geometry" />
        </mxCell>
        <mxCell id="fjk3bIadfPxCiMlMOLe3-54" value="E" style="text;strokeColor=none;fillColor=none;html=1;align=center;verticalAlign=middle;whiteSpace=wrap;rounded=0;fontSize=16;" vertex="1" parent="1">
          <mxGeometry x="-220" y="264" width="60" height="30" as="geometry" />
        </mxCell>
        <mxCell id="fjk3bIadfPxCiMlMOLe3-56" value="000" style="text;strokeColor=none;fillColor=none;html=1;align=center;verticalAlign=middle;whiteSpace=wrap;rounded=0;fontSize=16;" vertex="1" parent="1">
          <mxGeometry x="-150" y="20" width="60" height="30" as="geometry" />
        </mxCell>
        <mxCell id="fjk3bIadfPxCiMlMOLe3-57" value="001" style="text;strokeColor=none;fillColor=none;html=1;align=center;verticalAlign=middle;whiteSpace=wrap;rounded=0;fontSize=16;" vertex="1" parent="1">
          <mxGeometry x="-71" y="20" width="60" height="30" as="geometry" />
        </mxCell>
        <mxCell id="fjk3bIadfPxCiMlMOLe3-58" value="010" style="text;strokeColor=none;fillColor=none;html=1;align=center;verticalAlign=middle;whiteSpace=wrap;rounded=0;fontSize=16;" vertex="1" parent="1">
          <mxGeometry x="10" y="20" width="60" height="30" as="geometry" />
        </mxCell>
        <mxCell id="fjk3bIadfPxCiMlMOLe3-59" value="011" style="text;strokeColor=none;fillColor=none;html=1;align=center;verticalAlign=middle;whiteSpace=wrap;rounded=0;fontSize=16;" vertex="1" parent="1">
          <mxGeometry x="89" y="20" width="60" height="30" as="geometry" />
        </mxCell>
        <mxCell id="fjk3bIadfPxCiMlMOLe3-60" value="100" style="text;strokeColor=none;fillColor=none;html=1;align=center;verticalAlign=middle;whiteSpace=wrap;rounded=0;fontSize=16;" vertex="1" parent="1">
          <mxGeometry x="172" y="20" width="60" height="30" as="geometry" />
        </mxCell>
        <mxCell id="fjk3bIadfPxCiMlMOLe3-61" value="101" style="text;strokeColor=none;fillColor=none;html=1;align=center;verticalAlign=middle;whiteSpace=wrap;rounded=0;fontSize=16;" vertex="1" parent="1">
          <mxGeometry x="252" y="20" width="60" height="30" as="geometry" />
        </mxCell>
        <mxCell id="fjk3bIadfPxCiMlMOLe3-62" value="110" style="text;strokeColor=none;fillColor=none;html=1;align=center;verticalAlign=middle;whiteSpace=wrap;rounded=0;fontSize=16;" vertex="1" parent="1">
          <mxGeometry x="332" y="20" width="60" height="30" as="geometry" />
        </mxCell>
        <mxCell id="fjk3bIadfPxCiMlMOLe3-63" value="111" style="text;strokeColor=none;fillColor=none;html=1;align=center;verticalAlign=middle;whiteSpace=wrap;rounded=0;fontSize=16;" vertex="1" parent="1">
          <mxGeometry x="412" y="20" width="60" height="30" as="geometry" />
        </mxCell>
        <mxCell id="fjk3bIadfPxCiMlMOLe3-64" value="" style="ellipse;whiteSpace=wrap;html=1;aspect=fixed;" vertex="1" parent="1">
          <mxGeometry x="20" y="110" width="40" height="40" as="geometry" />
        </mxCell>
        <mxCell id="fjk3bIadfPxCiMlMOLe3-12" value="" style="ellipse;whiteSpace=wrap;html=1;aspect=fixed;fillColor=#dae8fc;gradientColor=#7ea6e0;strokeColor=#6c8ebf;" vertex="1" parent="1">
          <mxGeometry x="30" y="120" width="20" height="20" as="geometry" />
        </mxCell>
        <mxCell id="fjk3bIadfPxCiMlMOLe3-66" value="" style="ellipse;whiteSpace=wrap;html=1;aspect=fixed;fillColor=#dae8fc;gradientColor=#7ea6e0;strokeColor=#6c8ebf;" vertex="1" parent="1">
          <mxGeometry x="109" y="120" width="20" height="20" as="geometry" />
        </mxCell>
        <mxCell id="fjk3bIadfPxCiMlMOLe3-67" value="" style="ellipse;whiteSpace=wrap;html=1;aspect=fixed;fillColor=#dae8fc;gradientColor=#7ea6e0;strokeColor=#6c8ebf;" vertex="1" parent="1">
          <mxGeometry x="351" y="172" width="20" height="20" as="geometry" />
        </mxCell>
        <mxCell id="fjk3bIadfPxCiMlMOLe3-68" value="" style="ellipse;whiteSpace=wrap;html=1;aspect=fixed;fillColor=#dae8fc;gradientColor=#7ea6e0;strokeColor=#6c8ebf;" vertex="1" parent="1">
          <mxGeometry x="430" y="172" width="20" height="20" as="geometry" />
        </mxCell>
        <mxCell id="fjk3bIadfPxCiMlMOLe3-69" value="" style="ellipse;whiteSpace=wrap;html=1;aspect=fixed;fillColor=#dae8fc;gradientColor=#7ea6e0;strokeColor=#6c8ebf;" vertex="1" parent="1">
          <mxGeometry x="271" y="221" width="20" height="20" as="geometry" />
        </mxCell>
        <mxCell id="fjk3bIadfPxCiMlMOLe3-70" value="" style="ellipse;whiteSpace=wrap;html=1;aspect=fixed;fillColor=#dae8fc;gradientColor=#7ea6e0;strokeColor=#6c8ebf;" vertex="1" parent="1">
          <mxGeometry x="350" y="221" width="20" height="20" as="geometry" />
        </mxCell>
        <mxCell id="fjk3bIadfPxCiMlMOLe3-71" value="" style="ellipse;whiteSpace=wrap;html=1;aspect=fixed;fillColor=#dae8fc;gradientColor=#7ea6e0;strokeColor=#6c8ebf;" vertex="1" parent="1">
          <mxGeometry x="196" y="274" width="10" height="10" as="geometry" />
        </mxCell>
        <mxCell id="fjk3bIadfPxCiMlMOLe3-72" value="" style="ellipse;whiteSpace=wrap;html=1;aspect=fixed;fillColor=#dae8fc;gradientColor=#7ea6e0;strokeColor=#6c8ebf;" vertex="1" parent="1">
          <mxGeometry x="276" y="274" width="10" height="10" as="geometry" />
        </mxCell>
        <mxCell id="fjk3bIadfPxCiMlMOLe3-73" value="" style="ellipse;whiteSpace=wrap;html=1;aspect=fixed;fillColor=#dae8fc;gradientColor=#7ea6e0;strokeColor=#6c8ebf;" vertex="1" parent="1">
          <mxGeometry x="355" y="274" width="10" height="10" as="geometry" />
        </mxCell>
        <mxCell id="fjk3bIadfPxCiMlMOLe3-74" value="" style="ellipse;whiteSpace=wrap;html=1;aspect=fixed;fillColor=#dae8fc;gradientColor=#7ea6e0;strokeColor=#6c8ebf;" vertex="1" parent="1">
          <mxGeometry x="436" y="274" width="10" height="10" as="geometry" />
        </mxCell>
        <mxCell id="fjk3bIadfPxCiMlMOLe3-76" value="&lt;font style=&quot;font-size: 12px;&quot;&gt;&lt;b&gt;50&lt;/b&gt;&lt;/font&gt;" style="text;strokeColor=none;fillColor=none;html=1;align=center;verticalAlign=middle;whiteSpace=wrap;rounded=0;fontSize=16;" vertex="1" parent="1">
          <mxGeometry x="39" y="95" width="60" height="30" as="geometry" />
        </mxCell>
        <mxCell id="fjk3bIadfPxCiMlMOLe3-77" value="&lt;font style=&quot;font-size: 12px;&quot;&gt;&lt;b&gt;50&lt;/b&gt;&lt;/font&gt;" style="text;strokeColor=none;fillColor=none;html=1;align=center;verticalAlign=middle;whiteSpace=wrap;rounded=0;fontSize=16;" vertex="1" parent="1">
          <mxGeometry x="121" y="95" width="60" height="30" as="geometry" />
        </mxCell>
        <mxCell id="fjk3bIadfPxCiMlMOLe3-78" value="&lt;font style=&quot;font-size: 12px;&quot;&gt;&lt;b&gt;50&lt;/b&gt;&lt;/font&gt;" style="text;strokeColor=none;fillColor=none;html=1;align=center;verticalAlign=middle;whiteSpace=wrap;rounded=0;fontSize=16;" vertex="1" parent="1">
          <mxGeometry x="361" y="150" width="60" height="30" as="geometry" />
        </mxCell>
        <mxCell id="fjk3bIadfPxCiMlMOLe3-79" value="&lt;font style=&quot;font-size: 12px;&quot;&gt;&lt;b&gt;50&lt;/b&gt;&lt;/font&gt;" style="text;strokeColor=none;fillColor=none;html=1;align=center;verticalAlign=middle;whiteSpace=wrap;rounded=0;fontSize=16;" vertex="1" parent="1">
          <mxGeometry x="446" y="150" width="60" height="30" as="geometry" />
        </mxCell>
        <mxCell id="fjk3bIadfPxCiMlMOLe3-80" value="&lt;font style=&quot;font-size: 12px;&quot;&gt;&lt;b&gt;50&lt;/b&gt;&lt;/font&gt;" style="text;strokeColor=none;fillColor=none;html=1;align=center;verticalAlign=middle;whiteSpace=wrap;rounded=0;fontSize=16;" vertex="1" parent="1">
          <mxGeometry x="361" y="202" width="60" height="30" as="geometry" />
        </mxCell>
        <mxCell id="fjk3bIadfPxCiMlMOLe3-81" value="&lt;font style=&quot;font-size: 12px;&quot;&gt;&lt;b&gt;50&lt;/b&gt;&lt;/font&gt;" style="text;strokeColor=none;fillColor=none;html=1;align=center;verticalAlign=middle;whiteSpace=wrap;rounded=0;fontSize=16;" vertex="1" parent="1">
          <mxGeometry x="282" y="202" width="60" height="30" as="geometry" />
        </mxCell>
        <mxCell id="fjk3bIadfPxCiMlMOLe3-82" value="&lt;font style=&quot;font-size: 12px;&quot;&gt;&lt;b&gt;25&lt;/b&gt;&lt;/font&gt;" style="text;strokeColor=none;fillColor=none;html=1;align=center;verticalAlign=middle;whiteSpace=wrap;rounded=0;fontSize=16;" vertex="1" parent="1">
          <mxGeometry x="202" y="251" width="60" height="30" as="geometry" />
        </mxCell>
        <mxCell id="fjk3bIadfPxCiMlMOLe3-83" value="&lt;font style=&quot;font-size: 12px;&quot;&gt;&lt;b&gt;25&lt;/b&gt;&lt;/font&gt;" style="text;strokeColor=none;fillColor=none;html=1;align=center;verticalAlign=middle;whiteSpace=wrap;rounded=0;fontSize=16;" vertex="1" parent="1">
          <mxGeometry x="281" y="251" width="60" height="30" as="geometry" />
        </mxCell>
        <mxCell id="fjk3bIadfPxCiMlMOLe3-84" value="&lt;font style=&quot;font-size: 12px;&quot;&gt;&lt;b&gt;25&lt;/b&gt;&lt;/font&gt;" style="text;strokeColor=none;fillColor=none;html=1;align=center;verticalAlign=middle;whiteSpace=wrap;rounded=0;fontSize=16;" vertex="1" parent="1">
          <mxGeometry x="362" y="251" width="60" height="30" as="geometry" />
        </mxCell>
        <mxCell id="fjk3bIadfPxCiMlMOLe3-85" value="&lt;font style=&quot;font-size: 12px;&quot;&gt;&lt;b&gt;25&lt;/b&gt;&lt;/font&gt;" style="text;strokeColor=none;fillColor=none;html=1;align=center;verticalAlign=middle;whiteSpace=wrap;rounded=0;fontSize=16;" vertex="1" parent="1">
          <mxGeometry x="446" y="251" width="60" height="30" as="geometry" />
        </mxCell>
      </root>
    </mxGraphModel>
  </diagram>
</mxfile>
